<svg xmlns="http://www.w3.org/2000/svg" width="112" height="112" viewBox="0 0 112 112">
    <defs>
        <clipPath id="3e0onhqe9a">
            <path data-name="사각형 82061" style="fill:none;stroke:#fff;stroke-width:2px" d="M0 0h51v49H0z"/>
        </clipPath>
    </defs>
    <g data-name="그룹 54359" transform="translate(-664 -4524)">
        <circle data-name="타원 2074" cx="48" cy="48" r="48" transform="translate(672 4532)" style="fill:#00a2a0"/>
        <path data-name="패스 91639" d="M56 1a54.739 54.739 0 0 0-30.75 9.393 55.163 55.163 0 0 0-19.928 24.2 54.926 54.926 0 0 0 5.071 52.157 55.163 55.163 0 0 0 24.2 19.928 54.926 54.926 0 0 0 52.158-5.071 55.163 55.163 0 0 0 19.928-24.2 54.926 54.926 0 0 0-5.071-52.158 55.163 55.163 0 0 0-24.2-19.928A54.655 54.655 0 0 0 56 1m0-1A56 56 0 1 1 0 56 56 56 0 0 1 56 0z" transform="translate(664 4524)" style="fill:#00a2a0"/>
        <g data-name="그룹 89741">
            <g data-name="그룹 89740" style="clip-path:url(#3e0onhqe9a)" transform="translate(695 4556)">
                <path data-name="패스 91659" d="M16.842 47.8h-4.535c-.3 0-.616-.011-.933-.032a11.949 11.949 0 0 1-9.484-5.79 12.771 12.771 0 0 1-.865-11.687 14.766 14.766 0 0 1 1.614-2.672c2.637-3.7 11.205-15.1 11.291-15.217a1 1 0 0 1 .8-.4H29.2a1 1 0 0 1 1.087.353l.056.073.254.336 1.494 2-1.6 1.2a692.537 692.537 0 0 0-1.463-1.955H15.229c-1.546 2.06-8.62 11.5-10.962 14.778a12.747 12.747 0 0 0-1.406 2.3 10.768 10.768 0 0 0 .739 9.849 9.972 9.972 0 0 0 7.911 4.836c.272.018.542.027.8.027h4.535z" transform="translate(.056 .727)" style="fill:#fff"/>
                <path data-name="패스 91660" d="M21.613 0h.121a3.82 3.82 0 0 1 3.428 2.157 1.808 1.808 0 0 0 1.623 1.021 1.8 1.8 0 0 0 1.575-.933A3.8 3.8 0 0 1 31.823 0a3.818 3.818 0 0 1 3.426 2.157 1 1 0 0 1 0 .862L29.969 14.1a1 1 0 0 1-.9.57H14.281a1 1 0 0 1-.9-.57L8.1 3.019a1 1 0 0 1 0-.862A3.818 3.818 0 0 1 11.525 0a3.8 3.8 0 0 1 3.463 2.244 1.8 1.8 0 0 0 1.575.933 1.81 1.81 0 0 0 1.623-1.021A3.82 3.82 0 0 1 21.613 0zm.061 2h-.061a1.81 1.81 0 0 0-1.624 1.021 3.82 3.82 0 0 1-3.426 2.156A3.8 3.8 0 0 1 13.2 3.148q-.017-.033-.032-.067a1.8 1.8 0 0 0-3.033-.429l4.774 10.021h13.526l4.774-10.021A1.811 1.811 0 0 0 31.823 2a1.8 1.8 0 0 0-1.647 1.081q-.015.034-.032.067a3.8 3.8 0 0 1-3.359 2.029 3.818 3.818 0 0 1-3.426-2.157A1.81 1.81 0 0 0 21.7 2z" transform="translate(.505 .056)" style="fill:#fff"/>
                <path data-name="사각형 82057" d="M0-1h22a1 1 0 0 1 1 1v6a1 1 0 0 1-1 1H0a1 1 0 0 1-1-1V0a1 1 0 0 1 1-1zm21 2H1v4h20z" transform="translate(28 22)" style="fill:#fff"/>
                <path data-name="사각형 82058" d="M0-1h22a1 1 0 0 1 1 1v7a1 1 0 0 1-1 1H0a1 1 0 0 1-1-1V0a1 1 0 0 1 1-1zm21 2H1v5h20z" transform="translate(28 34)" style="fill:#fff"/>
                <path data-name="사각형 82059" d="M0-1h21a1 1 0 0 1 1 1v6a1 1 0 0 1-1 1H0a1 1 0 0 1-1-1V0a1 1 0 0 1 1-1zm20 2H1v4h19z" transform="translate(24 28)" style="fill:#fff"/>
                <path data-name="사각형 82060" d="M0-1h21a1 1 0 0 1 1 1v6a1 1 0 0 1-1 1H0a1 1 0 0 1-1-1V0a1 1 0 0 1 1-1zm20 2H1v4h19z" transform="translate(26 41)" style="fill:#fff"/>
            </g>
        </g>
    </g>
</svg>
