<svg data-name="그룹 89735" xmlns="http://www.w3.org/2000/svg" width="121.018" height="104" viewBox="0 0 121.018 104">
    <defs>
        <clipPath id="4uvahd2hea">
            <path data-name="사각형 82053" style="fill:#202020" d="M0 0h121.018v104H0z"/>
        </clipPath>
    </defs>
    <g data-name="그룹 89734" style="clip-path:url(#4uvahd2hea)">
        <path data-name="패스 91649" d="M119.126 79.424c0-6.645-5.463-18.91-13.234-18.91s-13.243 12.265-13.243 18.91a13.1 13.1 0 0 0 1.3 5.667h-6.376a13.1 13.1 0 0 0 1.3-5.667c0-5.039-3.147-13.326-8.066-17.018a8.018 8.018 0 0 0-10.346 0C65.543 66.1 62.4 74.385 62.4 79.424a12.97 12.97 0 0 0 1.3 5.667h-6.38a13.094 13.094 0 0 0 1.292-5.667c0-5.039-3.147-13.326-8.057-17.018a8.018 8.018 0 0 0-10.346 0c-4.919 3.692-8.066 11.979-8.066 17.018a13.094 13.094 0 0 0 1.292 5.667h-6.367a13.094 13.094 0 0 0 1.292-5.667c0-6.645-5.454-18.91-13.234-18.91S1.892 72.779 1.892 79.424a13.094 13.094 0 0 0 1.292 5.666H0v3.784h121.018V85.09h-3.193a12.969 12.969 0 0 0 1.3-5.667m-5.694 5.667H98.343a9.375 9.375 0 0 1-1.91-5.667c0-5.556 4.67-15.126 9.46-15.126s9.45 9.57 9.45 15.126a9.375 9.375 0 0 1-1.91 5.667m-45.341 0a9.375 9.375 0 0 1-1.91-5.667c0-5.556 4.67-15.126 9.45-15.126s9.46 9.57 9.46 15.126a9.375 9.375 0 0 1-1.91 5.667zm-30.252 0a9.316 9.316 0 0 1-1.91-5.667c0-5.556 4.67-15.126 9.45-15.126s9.46 9.57 9.46 15.126a9.375 9.375 0 0 1-1.91 5.667zm-30.261 0a9.375 9.375 0 0 1-1.91-5.667c0-5.556 4.679-15.126 9.46-15.126s9.45 9.57 9.45 15.126a9.316 9.316 0 0 1-1.91 5.667zm111.549 7.568h1.892v3.784H0v-3.784h119.126zm0-92.658H0v3.784h7.558V56.73h3.784V3.784H39.3l-1.9 9.459h1.753l-13.1 50.519 3.664.941.6-2.3 12.745-49.16h34.894L90.7 62.406l.6 2.3 3.655-.941L81.86 13.243h1.753l-1.892-9.46h27.945V56.73h3.784V3.784h7.568V0zM79 9.46H42.01l1.135-5.676h34.719zm-9.035 90.766h3.784v3.784h-3.785zm-7.568 0h3.783v3.784H62.4zm-7.558 0h3.784v3.784h-3.785zm-7.568 0h3.784v3.784H47.27zM62.4 32.153h-3.788v-9.46H62.4zM53.444 21.5l-3.082 9.26-3.59-1.2 3.082-9.26zm17.212 9.26-3.082-9.26 3.581-1.2 3.092 9.257z" style="fill:#202020"/>
    </g>
</svg>
