<svg xmlns="http://www.w3.org/2000/svg" width="112" height="112" viewBox="0 0 112 112">
    <defs>
        <clipPath id="o5irw828ha">
            <path data-name="사각형 82019" style="fill:#fff" d="M0 0h62.395v41.756H0z"/>
        </clipPath>
    </defs>
    <g data-name="그룹 54353" transform="translate(-424 -4524)">
        <circle data-name="타원 2074" cx="48" cy="48" r="48" transform="translate(432 4532)" style="fill:#009190"/>
        <path data-name="타원 2082" d="M56 1a54.739 54.739 0 0 0-30.75 9.393 55.163 55.163 0 0 0-19.928 24.2 54.926 54.926 0 0 0 5.071 52.157 55.163 55.163 0 0 0 24.2 19.928 54.926 54.926 0 0 0 52.158-5.071 55.163 55.163 0 0 0 19.928-24.2 54.926 54.926 0 0 0-5.071-52.158 55.163 55.163 0 0 0-24.2-19.928A54.655 54.655 0 0 0 56 1m0-1A56 56 0 1 1 0 56 56 56 0 0 1 56 0z" transform="translate(424 4524)" style="fill:#009190"/>
        <g data-name="그룹 89496">
            <g data-name="그룹 89495" transform="translate(448.803 4556.896)" style="clip-path:url(#o5irw828ha)">
                <path data-name="패스 91619" d="M58.518 56.213H3.877a3.876 3.876 0 1 1 0-7.753h.267l3.575-15.417a.831.831 0 0 1 .809-.643h46.446a.83.83 0 0 1 .818.689l1.661 9.595a.83.83 0 1 1-1.636.284l-1.542-8.906H9.188L5.613 49.479a.83.83 0 0 1-.809.643h-.927a2.215 2.215 0 1 0 0 4.43h54.641a2.215 2.215 0 1 0 0-4.43h-.764a.831.831 0 0 1-.819-.689l-.391-2.259a.831.831 0 0 1 1.637-.284l.272 1.57h.064a3.876 3.876 0 1 1 0 7.753" transform="translate(0 -14.457)" style="fill:#fff"/>
                <path data-name="패스 91620" d="M58.944 64.4H13.163a.831.831 0 1 1 0-1.661h45.781a.831.831 0 1 1 0 1.661" transform="translate(-5.503 -27.992)" style="fill:#fff"/>
                <path data-name="패스 91621" d="M13.481 19.791a.828.828 0 0 1-.582-.238 6.047 6.047 0 0 1-1.743-3.437 6.131 6.131 0 0 1-.061-.857 6 6 0 0 1 6.241-5.989c0-.083-.006-.164-.006-.245a6 6 0 0 1 9.4-4.932 5.994 5.994 0 0 1 10.289-1.941 5.988 5.988 0 0 1 9.545 2 5.993 5.993 0 0 1 8.7 4.111 5.994 5.994 0 0 1 5.25 10.576.831.831 0 1 1-.987-1.337 4.29 4.29 0 0 0 1.767-3.483 4.345 4.345 0 0 0-4.34-4.34 4.259 4.259 0 0 0-2.015.5.831.831 0 0 1-1.22-.734A4.331 4.331 0 0 0 49.38 5.1a4.246 4.246 0 0 0-2.731.977.831.831 0 0 1-1.339-.46 4.333 4.333 0 0 0-7.71-1.638.82.82 0 0 1-.72.333.83.83 0 0 1-.671-.424 4.333 4.333 0 0 0-8.113 1.846.831.831 0 0 1-1.462.487 4.334 4.334 0 0 0-7.64 2.8 4.506 4.506 0 0 0 .13 1.033.831.831 0 0 1-1.008.995 4.208 4.208 0 0 0-1.017-.126 4.339 4.339 0 0 0-3.033 7.443.831.831 0 0 1-.582 1.423" transform="translate(-4.951)" style="fill:#fff"/>
            </g>
        </g>
    </g>
</svg>
