<svg data-name="그룹 89733" xmlns="http://www.w3.org/2000/svg" width="104" height="104" viewBox="0 0 104 104">
    <defs>
        <clipPath id="kwv2eyu7da">
            <path data-name="사각형 82052" style="fill:#202020" d="M0 0h104v104H0z"/>
        </clipPath>
    </defs>
    <g data-name="그룹 89732" style="clip-path:url(#kwv2eyu7da)">
        <path data-name="패스 91646" d="m94.466 35.117-2.252-.944a9.46 9.46 0 0 0 2.077-5.963c0-4.94-3.647-8.96-8.143-8.96s-8.135 4.02-8.135 8.96a9.473 9.473 0 0 0 2.03 5.907l-2.379 1c-4.416 1.863-9.428 3.98-9.428 10.2v8.3h-8.182c.278-.293.547-.611.809-.936l.373-.373-.048-.048a14.317 14.317 0 0 0 2.474-5.534 20.521 20.521 0 0 1 1.832-4.3c2.157-4.187 5.1-9.927-.492-15.89a11.76 11.76 0 0 0-5.971-2.958 3.975 3.975 0 0 0-2.117-2.553v-4.779h38.939a8.123 8.123 0 0 0 0-16.246H8.127a8.123 8.123 0 1 0 0 16.246h45.536v5.138a6.426 6.426 0 0 0-1.72 1.516c-4.02.618-7.755 3.838-10.506 9.221l-.626 1.213C38.408 38 37.084 40.565 37.417 44.6a36.824 36.824 0 0 0 2.513 10.792c.373.888.618 1.618.817 2.22.611 1.832 1.047 3.156 3.409 4.361l.365.135a17.752 17.752 0 0 1 3.1 1.023 2.136 2.136 0 0 0 .983.238c1.237 0 2.521-1.062 3.964-2.569a4.885 4.885 0 0 0 4.29 2.561h16.247a5 5 0 0 0 1.625-.278v3.528H24.374V27l5.6 2.8 1.451-2.9-7.049-3.528V19.5H0v3.251h21.123v43.86H0v3.243h100.722v30.868H76.356V79.607h-3.251v21.115H21.123V79.607h-3.251v21.115H0v3.251h103.973V66.611H97.55V63.36h1.55a4.883 4.883 0 0 0 4.876-4.876v-13c0-6-4.115-8.175-9.507-10.371M3.251 8.127a4.883 4.883 0 0 1 4.876-4.876h87.726a4.872 4.872 0 0 1 0 9.745H8.127a4.876 4.876 0 0 1-4.876-4.869m97.471 45.489v4.868a1.637 1.637 0 0 1-.666 1.316 1.709 1.709 0 0 1-.959.309H82.858a1.625 1.625 0 1 1 0-3.251h14.621v-9.744h-1.626v-7.85c3.536 1.7 4.868 3.219 4.868 6.224zm-25.991 4.868a1.628 1.628 0 0 1-1.625 1.625H56.859a1.622 1.622 0 0 1-1.411-.84 9.548 9.548 0 0 0 1.664-2.069l.23-.341H71.48V45.314c0-3.267 1.649-4.678 6.5-6.8v8.6h-3.249v11.37zm-26.11 1.53A21.057 21.057 0 0 0 45.473 59c-1.023-.547-1.134-.888-1.641-2.41a34.42 34.42 0 0 0-.9-2.45 33.6 33.6 0 0 1-2.284-9.808c-.254-3.108.777-5.114 3.045-9.515l.626-1.221a15.863 15.863 0 0 1 5.439-6.478 14.649 14.649 0 0 0-.682 7.247c.634 2.831 2.537 6.129 7.992 6.129.254 0 .507-.008.769-.016l1.625-.087-.174-3.251-1.34.071-.278.016c-3.211.19-4.829-.9-5.423-3.568a12.56 12.56 0 0 1 1.491-7.6c.127-.23.246-.46.389-.666a5.158 5.158 0 0 1 .714-.864 1.834 1.834 0 0 1 .626-.412h.254a2.1 2.1 0 0 1 .262.563c.151.46.3 1.07.412 1.538l.048.167a16.882 16.882 0 0 0 1.023 3.172l.682 1.475.563-.262 2.387-1.11-.69-1.475a8.474 8.474 0 0 1-.349-.92 6.556 6.556 0 0 1 2.569 1.5c4.028 4.3 2.149 7.953-.024 12.187a21.954 21.954 0 0 0-2.114 5.068 11.108 11.108 0 0 1-2.09 4.535l-.6.6-.119.119a22.9 22.9 0 0 0-2.149 2.534 34.47 34.47 0 0 0-1.1 1.57c-.3.444-.658.975-.888 1.245a6.159 6.159 0 0 1-.959-.452l-.1-.056c-.777-.444-1.665-1.023-2.165-1.348-.412-.27-.785-.515-.991-.618-.381-.476-.634-2.648-.777-3.822a7.8 7.8 0 0 0-.056-.476 12.116 12.116 0 0 1 2.609 1.974l.7.856 2.1-.666.1-1.237a3.072 3.072 0 0 1 .539-1.863l.1-.1 1.031-1.055-2.323-2.276-1.152 1.162a4.266 4.266 0 0 0-.833 1.229c-1.927-1.388-4.559-2.854-5.891-2.141l-1.6.809.991 1.491a14.6 14.6 0 0 1 .444 2.672c.317 2.648.611 5.154 2.2 6.129.285.174.634.4 1.015.65.6.389 1.158.745 1.681 1.07a11.9 11.9 0 0 1-1.594 1.459m32.636-31.8c0-3.148 2.2-5.709 4.892-5.709s4.9 2.561 4.9 5.709A6.037 6.037 0 0 1 89 32.842a4.62 4.62 0 0 1-1.9.967 4.22 4.22 0 0 1-.951.111 3.983 3.983 0 0 1-1.1-.159 4.57 4.57 0 0 1-1.824-.991 6.049 6.049 0 0 1-1.966-4.559m-3.278 30.273v-8.119h16.247v3.251h-11.37a4.871 4.871 0 0 0-4.868 4.662l-.008.206.008.214a4.882 4.882 0 0 0 4.868 4.662h11.37v3.251H77.981zM92.6 47.114H81.232v-9.975l1.689-.714a7.442 7.442 0 0 0 6.359.048l3.32 1.388z" style="fill:#202020"/>
        <path data-name="패스 91647" d="M71.086 12.471H91.8V9.22H.819v3.251h70.267z" transform="translate(5.676 63.884)" style="fill:#202020"/>
        <path data-name="사각형 82036" transform="translate(14.621 60.11)" style="fill:#202020" d="M0 0h3.251v3.251H0z"/>
        <path data-name="사각형 82037" transform="translate(8.119 60.11)" style="fill:#202020" d="M0 0h3.251v3.251H0z"/>
        <path data-name="패스 91648" d="M17.872 21.164V4.917H0v3.251h14.621v9.745H0v3.251h17.872z" transform="translate(-.001 34.072)" style="fill:#202020"/>
        <path data-name="사각형 82038" transform="translate(60.11 6.502)" style="fill:#202020" d="M0 0h3.251v3.251H0z"/>
        <path data-name="사각형 82039" transform="translate(14.621 6.502)" style="fill:#202020" d="M0 0h3.251v3.251H0z"/>
        <path data-name="사각형 82040" transform="translate(21.115 6.502)" style="fill:#202020" d="M0 0h3.251v3.251H0z"/>
        <path data-name="사각형 82041" transform="translate(66.603 6.502)" style="fill:#202020" d="M0 0h3.251v3.251H0z"/>
        <path data-name="사각형 82042" transform="translate(8.119 6.502)" style="fill:#202020" d="M0 0h3.251v3.251H0z"/>
        <path data-name="사각형 82043" transform="translate(92.603 6.502)" style="fill:#202020" d="M0 0h3.251v3.251H0z"/>
        <path data-name="사각형 82044" transform="translate(73.105 6.502)" style="fill:#202020" d="M0 0h3.251v3.251H0z"/>
        <path data-name="사각형 82045" transform="translate(79.599 6.502)" style="fill:#202020" d="M0 0h3.251v3.251H0z"/>
        <path data-name="사각형 82046" transform="translate(86.101 6.502)" style="fill:#202020" d="M0 0h3.251v3.251H0z"/>
        <path data-name="사각형 82047" transform="translate(53.608 6.502)" style="fill:#202020" d="M0 0h3.251v3.251H0z"/>
        <path data-name="사각형 82048" transform="translate(27.617 6.502)" style="fill:#202020" d="M0 0h3.251v3.251H0z"/>
        <path data-name="사각형 82049" transform="translate(47.114 6.502)" style="fill:#202020" d="M0 0h3.251v3.251H0z"/>
        <path data-name="사각형 82050" transform="translate(40.612 6.502)" style="fill:#202020" d="M0 0h3.251v3.251H0z"/>
        <path data-name="사각형 82051" transform="translate(34.11 6.502)" style="fill:#202020" d="M0 0h3.251v3.251H0z"/>
    </g>
</svg>
