<svg xmlns="http://www.w3.org/2000/svg" width="112" height="112" viewBox="0 0 112 112">
    <defs>
        <clipPath id="flyx0wn9ca">
            <path data-name="사각형 82054" style="stroke:#fff;stroke-width:2px;fill:#fff" d="M0 0h42.153v55.194H0z"/>
        </clipPath>
    </defs>
    <g data-name="그룹 54353" transform="translate(-424 -4524)">
        <circle data-name="타원 2074" cx="48" cy="48" r="48" transform="translate(432 4532)" style="fill:#01bbb8"/>
        <path data-name="타원 2082" d="M56 1a54.739 54.739 0 0 0-30.75 9.393 55.163 55.163 0 0 0-19.928 24.2 54.926 54.926 0 0 0 5.071 52.157 55.163 55.163 0 0 0 24.2 19.928 54.926 54.926 0 0 0 52.158-5.071 55.163 55.163 0 0 0 19.928-24.2 54.926 54.926 0 0 0-5.071-52.158 55.163 55.163 0 0 0-24.2-19.928A54.655 54.655 0 0 0 56 1m0-1A56 56 0 1 1 0 56 56 56 0 0 1 56 0z" transform="translate(424 4524)" style="fill:#01bbb8"/>
        <g data-name="그룹 89737">
            <g data-name="그룹 89736" style="clip-path:url(#flyx0wn9ca)" transform="translate(459.405 4552.403)">
                <path data-name="패스 91650" d="M104.741 94.042a1 1 0 0 1-1-1V88.9a2.979 2.979 0 0 0-5.942 0 1 1 0 0 1-2 0 4.976 4.976 0 0 1 9.942 0v4.141a1 1 0 0 1-1 1.001z" transform="translate(-72.064 -63.382)" style="fill:#fff"/>
                <path data-name="패스 91651" d="M73.66 91.017a1 1 0 0 1-1-1v-7.3a2.979 2.979 0 0 0-5.943 0v.183a1 1 0 0 1-2 0v-.189a4.976 4.976 0 0 1 9.943 0v7.3a1 1 0 0 1-1 1.006z" transform="translate(-48.924 -58.777)" style="fill:#fff"/>
                <path data-name="패스 91652" d="M34.634 64.816a1 1 0 0 1-1-1V38.76a4.976 4.976 0 0 1 9.942 0v18.535a1 1 0 0 1-2 0V38.76a2.979 2.979 0 0 0-5.942 0v25.056a1 1 0 0 1-1 1z" transform="translate(-25.784 -26.054)" style="fill:#fff"/>
                <path data-name="패스 91653" d="M39.567 122.65H22.193a9.857 9.857 0 0 1-8.862-5.523l-2.84-5.82a9.992 9.992 0 0 1 2.678-12.135l2.8-2.282a1 1 0 0 1 1.263 1.55l-2.8 2.282a7.966 7.966 0 0 0-2.144 9.707l2.84 5.82a7.9 7.9 0 0 0 7.065 4.4h17.374a7.841 7.841 0 0 0 7.853-7.811v-17.75a2.776 2.776 0 0 0-2.781-2.763 3.143 3.143 0 0 0-3.161 2.763v4.142a1 1 0 0 1-2 0v-4.142a4.527 4.527 0 0 1 1.642-3.411 5.436 5.436 0 0 1 3.519-1.353 4.778 4.778 0 0 1 4.781 4.763v17.75a9.843 9.843 0 0 1-9.853 9.813z" transform="translate(-7.8 -67.989)" style="fill:#fff"/>
                <path data-name="패스 91654" d="M7.931 24.616a1 1 0 0 1-.83-.44A12.3 12.3 0 1 1 29.6 17.3a1 1 0 1 1-2 0 10.3 10.3 0 1 0-18.84 5.758 1 1 0 0 1-.828 1.56z" transform="translate(-4.467 -4.467)" style="fill:#fff"/>
            </g>
        </g>
    </g>
</svg>
