<svg xmlns="http://www.w3.org/2000/svg" width="112" height="112" viewBox="0 0 112 112">
    <defs>
        <clipPath id="cmox3yz00a">
            <path data-name="사각형 82065" style="stroke:#fff;fill:#fff" d="M0 0h55.596v55.596H0z"/>
        </clipPath>
    </defs>
    <g data-name="그룹 54359" transform="translate(-664 -4524)">
        <circle data-name="타원 2074" cx="48" cy="48" r="48" transform="translate(672 4532)" style="fill:#007b9b"/>
        <path data-name="패스 91639" d="M56 1a54.739 54.739 0 0 0-30.75 9.393 55.163 55.163 0 0 0-19.928 24.2 54.926 54.926 0 0 0 5.071 52.157 55.163 55.163 0 0 0 24.2 19.928 54.926 54.926 0 0 0 52.158-5.071 55.163 55.163 0 0 0 19.928-24.2 54.926 54.926 0 0 0-5.071-52.158 55.163 55.163 0 0 0-24.2-19.928A54.655 54.655 0 0 0 56 1m0-1A56 56 0 1 1 0 56 56 56 0 0 1 56 0z" transform="translate(664 4524)" style="fill:#007b9b"/>
        <g data-name="그룹 89751">
            <g data-name="그룹 89750" transform="translate(692.172 4552.171)" style="clip-path:url(#cmox3yz00a)">
                <path data-name="패스 91668" d="m25.379 55.355-1.124-.14a27.715 27.715 0 1 1 30.96-30.96l.14 1.124H36.449l-.236-.666a9.014 9.014 0 1 0-11.5 11.5l.666.236zM27.718 2a25.716 25.716 0 0 0-4.34 51.064V37.838a11.014 11.014 0 1 1 14.46-14.459h15.226A25.743 25.743 0 0 0 27.718 2z" transform="translate(.113 .113)" style="fill:#fff"/>
                <path data-name="패스 91669" d="M33.391 27H52.3l-.14 1.124a27.7 27.7 0 0 1-24.036 24.032L27 52.3V33.391l.666-.236a8.973 8.973 0 0 0 5.488-5.488zm16.616 2H34.779A11.027 11.027 0 0 1 29 34.779v15.227A25.651 25.651 0 0 0 50.006 29z" transform="translate(3.172 3.171)" style="fill:#fff"/>
            </g>
        </g>
    </g>
</svg>
