<svg data-name="그룹 89729" xmlns="http://www.w3.org/2000/svg" width="104" height="104" viewBox="0 0 104 104">
    <defs>
        <clipPath id="bsdsdx1vya">
            <path data-name="사각형 82034" style="fill:#202020" d="M0 0h104v104H0z"/>
        </clipPath>
    </defs>
    <g data-name="그룹 89728" style="clip-path:url(#bsdsdx1vya)">
        <path data-name="패스 91639" d="M26.075 13.456a6 6 0 1 0 0-12H9.966a6 6 0 1 0 0 12zm-18.122-6a2.007 2.007 0 0 1 2.012-2h16.11a2 2 0 1 1 0 4H9.966a2.007 2.007 0 0 1-2.012-2" transform="translate(23.201 8.545)" style="fill:#202020"/>
        <path data-name="패스 91640" d="M103.993 79.068v-8a1.984 1.984 0 0 0-.961-1.7c-1.77-3.371-8.9-15.61-20.6-18.83A320.1 320.1 0 0 0 78.46 1.69 2.026 2.026 0 0 0 75.784.118c-1.639.59-3.3 1.174-4.964 1.757A913.368 913.368 0 0 1 65.337.1a1.963 1.963 0 0 0-1.3.014 866.029 866.029 0 0 1-5.068 1.761Q56.262.989 53.6.1a2.054 2.054 0 0 0-1.3.007Q49.736 1 47.133 1.875C45.363 1.285 43.6.7 41.857.111a2.007 2.007 0 0 0-1.3 0c-1.742.59-3.5 1.174-5.268 1.764Q32.686 1 30.124.111a2.054 2.054 0 0 0-1.3-.011q-2.665.886-5.372 1.771C21.751 1.291 20.071.7 18.4.118A1.964 1.964 0 0 0 17.1.1c-1.818.59-3.637 1.181-5.476 1.771Q9.123 1 6.665.118a2.043 2.043 0 0 0-1.708.164 2 2 0 0 0-.968 1.408A320.407 320.407 0 0 0 .532 33.672a2 2 0 0 0 1.894 2.114l.021-.007a2 2 0 0 0 2.1-1.881A316.96 316.96 0 0 1 7.6 4.7c1.1.391 2.212.783 3.326 1.174a2.032 2.032 0 0 0 1.293.014C14.056 5.3 15.888 4.7 17.7 4.113q2.52.887 5.075 1.764a2.033 2.033 0 0 0 1.293.014c1.811-.6 3.6-1.188 5.386-1.778 1.715.59 3.436 1.181 5.179 1.771a2.033 2.033 0 0 0 1.293 0c1.777-.59 3.533-1.181 5.282-1.771Q43.831 5 46.5 5.884a2.059 2.059 0 0 0 1.286 0Q50.4 5 52.968 4.113q2.676.887 5.386 1.778a2.033 2.033 0 0 0 1.293-.014Q62.208 5 64.729 4.113c1.818.59 3.651 1.188 5.5 1.778a2.033 2.033 0 0 0 1.293-.014q1.67-.587 3.333-1.174a315.733 315.733 0 0 1 3.415 38.058 104.808 104.808 0 0 0-16.635 1.62 13.088 13.088 0 0 0-.83-2.107c-2.634-5.3-8.483-8.464-15.66-8.464A27.205 27.205 0 0 0 33.3 36.645c-8.3 4.07-13.671 11.491-13.671 18.912a14.448 14.448 0 0 0 .353 3.158 169.714 169.714 0 0 0-15.55 8.862c-.256-5.2-.4-10.393-.4-15.576 0-3.371.055-6.789.166-10.16a2.01 2.01 0 0 0-1.943-2.059h-.008a2.007 2.007 0 0 0-2.081 1.936A317.621 317.621 0 0 0 0 52a320.1 320.1 0 0 0 3.989 50.311A2.027 2.027 0 0 0 5.981 104a2.14 2.14 0 0 0 .684-.117q2.458-.886 4.964-1.757c1.839.59 3.671 1.181 5.483 1.771a1.964 1.964 0 0 0 1.3-.014 948.003 948.003 0 0 1 5.068-1.757q2.707.886 5.372 1.771a2.054 2.054 0 0 0 1.3-.007q2.562-.886 5.165-1.764c1.77.59 3.526 1.174 5.268 1.764a2.007 2.007 0 0 0 1.3 0c1.749-.59 3.505-1.174 5.275-1.764q2.6.875 5.165 1.764a2.054 2.054 0 0 0 1.3.007q2.665-.886 5.372-1.771c1.044.357 2.074.721 3.111 1.085a2.029 2.029 0 0 0 1.6.789h28.2a2.029 2.029 0 0 0 1.6-.789c7.225-9.446 10.751-17.567 10.482-24.143M78.805 100h-14.09l-.118-.165c-5.407-7.263-8.449-13.688-8.9-18.768h44.224c-.456 5.121-3.533 11.6-9.023 18.933zM93.56 77.064h-37.9v-4h44.3v4h-6.4zm.346-8 .007-.064a1.988 1.988 0 0 0-.588-1.407 2.088 2.088 0 0 0-2.849 0A2 2 0 0 0 89.882 69l.007.062h-14.1l.002-.062a2 2 0 0 0-.595-1.407 2.088 2.088 0 0 0-2.849 0A1.988 1.988 0 0 0 71.76 69l.007.062H61.686l.007-.062a2.018 2.018 0 0 0-.595-1.414 1.942 1.942 0 0 0-1.037-.522 80.507 80.507 0 0 1 6.492-6.576A2.019 2.019 0 0 0 67.9 61a2.1 2.1 0 0 0 1.431-.577A2.038 2.038 0 0 0 69.907 59a2.01 2.01 0 0 0-.3-1.037A23.622 23.622 0 0 1 75.6 54.5a1.961 1.961 0 0 0 .525.92 2.021 2.021 0 0 0 1.422.58 2.063 2.063 0 0 0 .837-.185 2.112 2.112 0 0 0 .588-.4A2.02 2.02 0 0 0 79.559 54c.283.048.567.1.85.158a18.163 18.163 0 0 1 2.012.563 22.508 22.508 0 0 1 6.2 3.377 1.943 1.943 0 0 0-.92.494 1.971 1.971 0 0 0 0 2.821 2 2 0 0 0 2.842 0 1.97 1.97 0 0 0 .574-1.208 43.528 43.528 0 0 1 7.1 8.855zM23.66 55.557c0-5.821 4.591-11.979 11.429-15.322a23.094 23.094 0 0 1 10.053-2.423c5.607 0 10.108 2.327 12.044 6.233a9.111 9.111 0 0 1 .463 1.105 10.017 10.017 0 0 1 .546 3.3c0 .24-.021.487-.035.728-.36 5.595-4.84 11.389-11.387 14.594A23.094 23.094 0 0 1 36.72 66.19c-5.22 0-9.479-2.018-11.6-5.444a7.991 7.991 0 0 1-.442-.789 9.576 9.576 0 0 1-.926-3.089 10.184 10.184 0 0 1-.09-1.311M21.5 62.524c2.807 4.819 8.414 7.668 15.225 7.668a27.153 27.153 0 0 0 11.83-2.835c8.311-4.071 13.676-11.491 13.676-18.912v-.076a99.266 99.266 0 0 1 16.139-1.606c.014 1.05.021 2.107.028 3.158-10.011.192-22.27 15.308-25.277 19.221a1.992 1.992 0 0 0-1.493 1.922v8l.007.007c-.221 5.354 2.074 11.739 6.838 19.022l-.09.021c-1.811.6-3.6 1.188-5.386 1.778Q50.424 99 47.81 98.118a2.059 2.059 0 0 0-1.286 0q-2.665.886-5.289 1.771-2.614-.889-5.282-1.771a2.033 2.033 0 0 0-1.293 0q-2.613.886-5.185 1.771C27.7 99.3 25.9 98.708 24.1 98.111a2.033 2.033 0 0 0-1.293.014c-1.708.59-3.4 1.174-5.082 1.764-1.818-.59-3.651-1.188-5.5-1.778a2.032 2.032 0 0 0-1.293.014Q9.261 98.712 7.6 99.3a317.527 317.527 0 0 1-2.9-27.081 160.406 160.406 0 0 1 16.8-9.693" transform="translate(0 -.001)" style="fill:#202020"/>
        <path data-name="패스 91641" d="M10.2 9.742a2 2 0 0 0-.6 1.408 2.017 2.017 0 0 0 3.443 1.414 1.987 1.987 0 0 0 0-2.821 2.088 2.088 0 0 0-2.849 0" transform="translate(56.78 53.845)" style="fill:#202020"/>
        <path data-name="패스 91642" d="M14.254 9.308a2.127 2.127 0 0 0-2.019.309 1.4 1.4 0 0 0-.159.124 1.982 1.982 0 0 0-.581 1.407 1.943 1.943 0 0 0 .595 1.414l.014.014a1.991 1.991 0 0 0 1.4.577 2.106 2.106 0 0 0 .588-.1 1.968 1.968 0 0 0 .83-.494 1.943 1.943 0 0 0 .595-1.414 2.01 2.01 0 0 0-.581-1.414 1.823 1.823 0 0 0-.684-.426" transform="translate(67.981 53.847)" style="fill:#202020"/>
        <path data-name="패스 91643" d="M11.161 9.014a1.955 1.955 0 0 0 0 2.821A2 2 0 1 0 14 9.014a2.079 2.079 0 0 0-2.842 0" transform="translate(62.446 49.576)" style="fill:#202020"/>
        <path data-name="패스 91644" d="M13.981 8.345a2.088 2.088 0 0 0-1.832.522 1.977 1.977 0 0 0-.187.233 1.974 1.974 0 0 0-.062 2.28 1.835 1.835 0 0 0 .263.309 1.967 1.967 0 0 0 1.417.59 2.38 2.38 0 0 0 .311-.027A1.97 1.97 0 0 0 15 11.689a1.955 1.955 0 0 0 0-2.821 1.93 1.93 0 0 0-1.016-.522" transform="translate(68.413 48.721)" style="fill:#202020"/>
    </g>
</svg>
