<svg xmlns="http://www.w3.org/2000/svg" width="172" height="32" viewBox="0 0 172 32">
    <defs>
        <clipPath id="7qxf3ed6ja">
            <path data-name="사각형 81557" d="M0 0h172v32H0z"/>
        </clipPath>
    </defs>
    <path data-name="패스 90935" d="M72.195.441v30.906h-4.717L50.462 10.419v20.928h-5.687V.441h4.72l17.014 20.927V.441z"/>
    <g data-name="그룹 89448">
        <g data-name="그룹 89447" style="clip-path:url(#7qxf3ed6ja)">
            <path data-name="패스 90936" d="M85.414 29.734a15.184 15.184 0 0 1-5.953-5.7 15.657 15.657 0 0 1-2.161-8.145 15.658 15.658 0 0 1 2.161-8.145 15.179 15.179 0 0 1 5.953-5.695 18.667 18.667 0 0 1 17.022 0 15.243 15.243 0 0 1 5.953 5.672 15.636 15.636 0 0 1 2.161 8.168 15.633 15.633 0 0 1-2.161 8.168 15.247 15.247 0 0 1-5.953 5.673 18.674 18.674 0 0 1-17.022 0m14.068-4.371a10.055 10.055 0 0 0 3.881-3.886 11.142 11.142 0 0 0 1.411-5.584 11.148 11.148 0 0 0-1.411-5.585 10.06 10.06 0 0 0-3.881-3.885 11.8 11.8 0 0 0-11.113 0 10.051 10.051 0 0 0-3.881 3.885 11.138 11.138 0 0 0-1.411 5.585 11.132 11.132 0 0 0 1.411 5.584 10.046 10.046 0 0 0 3.881 3.886 11.8 11.8 0 0 0 11.113 0"/>
            <path data-name="패스 90937" d="m142.583.441-13.45 30.9h-5.644L109.995.441h6.222l10.275 23.84L136.851.441z"/>
            <path data-name="패스 90938" d="M162.785 24.193h-15.43l-3.043 7.152h-5.91L152.289.441h5.645l13.935 30.9h-6zm-1.9-4.5-5.821-13.51-5.777 13.51z"/>
            <path data-name="패스 90939" d="M2.81 53.356v-9.293H0v12.106h12.093v-2.813z" transform="translate(0 -24.069)" style="fill:#505050"/>
            <path data-name="패스 90940" d="M50.007 44.063v7.975l-7.967-7.975h-3.973L49.992 56l.014.014v.023l.12.131h2.689V44.063z" transform="translate(-20.813 -24.069)" style="fill:#ff7200"/>
            <path data-name="패스 90941" d="M8.621 7.61 2.677.343H.362v11.984H3.1v-7.29l5.98 7.291h2.279V.343H8.621z" transform="translate(-.198 -.187)" style="fill:#ff7200"/>
            <path data-name="패스 90942" d="M43.927 3.136h9.283v9.294h2.81V.343H43.927z" transform="translate(-24.017 -.187)" style="fill:#505050"/>
        </g>
    </g>
</svg>
