<svg xmlns="http://www.w3.org/2000/svg" width="96" height="96" viewBox="0 0 96 96">
    <defs>
        <clipPath id="1hy4zr181a">
            <path data-name="사각형 82821" style="fill:none" d="M0 0h48v51.23H0z"/>
        </clipPath>
    </defs>
    <g data-name="그룹 97727" transform="translate(-912 -1911)">
        <circle data-name="타원 2357" cx="48" cy="48" r="48" transform="translate(912 1911)" style="fill:#fff"/>
        <g data-name="그룹 93054">
            <g data-name="그룹 93053" style="clip-path:url(#1hy4zr181a)" transform="translate(936 1933)">
                <path data-name="패스 93664" d="M36.779 8.552a45.607 45.607 0 0 1 3.064 17.287c0 13.718-4.865 24.839-10.867 24.839S18.109 39.557 18.109 25.839 22.974 1 28.976 1a6.117 6.117 0 0 1 4.23 1.952" transform="translate(-4.053 -.224)" style="stroke-linecap:round;stroke-linejoin:round;stroke-width:2px;stroke:#000;fill:none"/>
                <path data-name="패스 93666" d="M45.29 31.159c2.662 3.783 3.484 7.268 2.041 9.767-3 5.2-15.065 3.851-26.945-3.008S1.309 21.285 4.31 16.088s15.064-3.851 26.944 3.012a51.367 51.367 0 0 1 9.9 7.34" transform="translate(-.812 -2.892)" style="stroke-linecap:round;stroke-linejoin:round;stroke-width:2px;stroke:#000;fill:none"/>
                <path data-name="패스 93668" d="M7.355 30.976c2.882-4.051 7.755-8.351 13.866-11.88 11.88-6.859 23.944-8.205 26.945-3.008 1.392 2.41.59 5.805-1.856 9.438" transform="translate(-1.646 -2.892)" style="stroke-linecap:round;stroke-linejoin:round;stroke-width:2px;stroke:#000;fill:none"/>
                <path data-name="패스 93669" d="M41.184 35.625A51.316 51.316 0 0 1 31.254 43C19.374 49.858 7.31 51.2 4.31 46.007a5.818 5.818 0 0 1-.559-4.012" transform="translate(-.812 -7.973)" style="stroke-linecap:round;stroke-linejoin:round;stroke-width:2px;stroke:#000;fill:none"/>
                <path data-name="패스 93667" d="M52.552 29.416a3.1 3.1 0 1 1-1.136 4.241 3.106 3.106 0 0 1 1.136-4.241z" transform="translate(-11.413 -6.49)" style="stroke:#099;stroke-linecap:round;stroke-linejoin:round;stroke-width:2px;fill:none"/>
                <path data-name="패스 93665" d="M5.657 36.417a3.1 3.1 0 1 1-4.24 1.136 3.1 3.1 0 0 1 4.24-1.136z" transform="translate(-.224 -8.057)" style="stroke:#099;stroke-linecap:round;stroke-linejoin:round;stroke-width:2px;fill:none"/>
                <circle data-name="타원 2359" cx="3.105" cy="3.105" r="3.105" transform="translate(27.944 2.329)" style="stroke:#099;stroke-linecap:round;stroke-linejoin:round;stroke-width:2px;fill:none"/>
                <circle data-name="타원 2358" cx="5.433" cy="5.433" r="5.433" transform="translate(19.49 20.181)" style="stroke:#099;stroke-linecap:round;stroke-linejoin:round;stroke-width:2px;fill:none"/>
            </g>
        </g>
    </g>
</svg>
